REM MD5 f003a76ab745e0fcd4f690b7f2e19b4f
FILE "Tomb Raider (USA) (Rev 5).bin" BINARY
  TRACK 01 MODE2/2352
    INDEX 01 00:00:00
  TRACK 02 AUDIO
    INDEX 00 40:10:27
    INDEX 01 40:12:27
  TRACK 03 AUDIO
    INDEX 00 43:26:70
    INDEX 01 43:28:70
  TRACK 04 AUDIO
    INDEX 00 44:30:68
    INDEX 01 44:32:68
  TRACK 05 AUDIO
    INDEX 00 46:34:32
    INDEX 01 46:36:32
  TRACK 06 AUDIO
    INDEX 00 48:34:43
    INDEX 01 48:36:43
  TRACK 07 AUDIO
    INDEX 00 49:51:42
    INDEX 01 49:53:42
  TRACK 08 AUDIO
    INDEX 00 50:47:33
    INDEX 01 50:49:33
  TRACK 09 AUDIO
    INDEX 00 51:55:52
    INDEX 01 51:57:52
  TRACK 10 AUDIO
    INDEX 00 52:35:58
    INDEX 01 52:37:58
  TRACK 11 AUDIO
    INDEX 00 53:55:04
    INDEX 01 53:57:04
  TRACK 12 AUDIO
    INDEX 00 54:03:41
    INDEX 01 54:05:41
  TRACK 13 AUDIO
    INDEX 00 54:18:40
    INDEX 01 54:20:40
  TRACK 14 AUDIO
    INDEX 00 54:25:43
    INDEX 01 54:27:43
  TRACK 15 AUDIO
    INDEX 00 54:37:48
    INDEX 01 54:39:48
  TRACK 16 AUDIO
    INDEX 00 54:48:51
    INDEX 01 54:50:51
  TRACK 17 AUDIO
    INDEX 00 55:27:39
    INDEX 01 55:29:39
  TRACK 18 AUDIO
    INDEX 00 56:10:28
    INDEX 01 56:12:28
  TRACK 19 AUDIO
    INDEX 00 56:35:52
    INDEX 01 56:37:52
  TRACK 20 AUDIO
    INDEX 00 58:04:22
    INDEX 01 58:06:22
  TRACK 21 AUDIO
    INDEX 00 58:58:39
    INDEX 01 59:00:39
  TRACK 22 AUDIO
    INDEX 00 59:39:56
    INDEX 01 59:41:56
  TRACK 23 AUDIO
    INDEX 00 60:43:19
    INDEX 01 60:45:19
  TRACK 24 AUDIO
    INDEX 00 61:40:63
    INDEX 01 61:42:63
  TRACK 25 AUDIO
    INDEX 00 61:56:16
    INDEX 01 61:58:16
  TRACK 26 AUDIO
    INDEX 00 62:33:04
    INDEX 01 62:35:04
  TRACK 27 AUDIO
    INDEX 00 62:40:05
    INDEX 01 62:42:05
  TRACK 28 AUDIO
    INDEX 00 62:47:06
    INDEX 01 62:49:06
  TRACK 29 AUDIO
    INDEX 00 62:54:06
    INDEX 01 62:56:06
  TRACK 30 AUDIO
    INDEX 00 63:01:07
    INDEX 01 63:03:07
  TRACK 31 AUDIO
    INDEX 00 63:09:05
    INDEX 01 63:11:05
  TRACK 32 AUDIO
    INDEX 00 63:16:06
    INDEX 01 63:18:06
  TRACK 33 AUDIO
    INDEX 00 63:25:44
    INDEX 01 63:27:44
  TRACK 34 AUDIO
    INDEX 00 63:35:11
    INDEX 01 63:37:11
  TRACK 35 AUDIO
    INDEX 00 63:42:58
    INDEX 01 63:44:58
  TRACK 36 AUDIO
    INDEX 00 63:49:72
    INDEX 01 63:51:72
  TRACK 37 AUDIO
    INDEX 00 64:06:68
    INDEX 01 64:08:68
  TRACK 38 AUDIO
    INDEX 00 64:13:69
    INDEX 01 64:15:69
  TRACK 39 AUDIO
    INDEX 00 64:20:70
    INDEX 01 64:22:70
  TRACK 40 AUDIO
    INDEX 00 64:37:01
    INDEX 01 64:39:01
  TRACK 41 AUDIO
    INDEX 00 64:47:41
    INDEX 01 64:49:41
  TRACK 42 AUDIO
    INDEX 00 64:54:42
    INDEX 01 64:56:42
  TRACK 43 AUDIO
    INDEX 00 65:01:42
    INDEX 01 65:03:42
  TRACK 44 AUDIO
    INDEX 00 65:10:55
    INDEX 01 65:12:55
  TRACK 45 AUDIO
    INDEX 00 65:19:04
    INDEX 01 65:21:04
  TRACK 46 AUDIO
    INDEX 00 65:28:70
    INDEX 01 65:30:70
  TRACK 47 AUDIO
    INDEX 00 65:35:71
    INDEX 01 65:37:71
  TRACK 48 AUDIO
    INDEX 00 65:42:72
    INDEX 01 65:44:72
  TRACK 49 AUDIO
    INDEX 00 65:49:73
    INDEX 01 65:51:73
  TRACK 50 AUDIO
    INDEX 00 66:05:69
    INDEX 01 66:07:69
  TRACK 51 AUDIO
    INDEX 00 66:12:69
    INDEX 01 66:14:69
  TRACK 52 AUDIO
    INDEX 00 66:19:69
    INDEX 01 66:21:69
  TRACK 53 AUDIO
    INDEX 00 66:26:70
    INDEX 01 66:28:70
  TRACK 54 AUDIO
    INDEX 00 66:36:15
    INDEX 01 66:38:15
  TRACK 55 AUDIO
    INDEX 00 66:43:16
    INDEX 01 66:45:16
  TRACK 56 AUDIO
    INDEX 00 66:52:70
    INDEX 01 66:54:70
  TRACK 57 AUDIO
    INDEX 00 66:59:71
    INDEX 01 67:01:71
REM LEADOUT 70:18:71
